# xmcd
#
# Track frame offsets:
#	150
#	13391
#	29296
#	43175
#	58340
#	74355
#	86877
#	98153
#	110794
#	123261
#	134686
#	147498
#	161297
#	174932
#	188469
#	202678
#	216130
#	229265
#	247574
#	259514
#	271695
#	283269
#	295687
#	307319
#	316886
#	330170
#
# Disc length: 4568 seconds
#
# Revision: 1
# Processed by: cddbd v1.5.2PL0 Copyright (c) Steve Scherf et al.
# Submitted via: audiograbber 1.83.01
#
DISCID=7c11d61a
DTITLE=Percy Sledge - When A Man Loves A Woman (The Essential Collection 1966-1
DTITLE=968)
DYEAR=1900
DGENRE=
TTITLE0=When a man loves a woman
TTITLE1=Out of left field
TTITLE2=Take time to know her
TTITLE3=Warm and tender love
TTITLE4=Just out of reach (of my empty arms)
TTITLE5=The dark end of the street
TTITLE6=What am I living for
TTITLE7=Cover me
TTITLE8=Sudden stop
TTITLE9=Baby, help me
TTITLE10=It tears me up
TTITLE11=My special prayer
TTITLE12=You're all around me
TTITLE13=Success
TTITLE14=Love me tender
TTITLE15=It's all wrong, but it's alright
TTITLE16=Come softly to me
TTITLE17=Drown in my own tears
TTITLE18=I'm hanging up my heart for you
TTITLE19=Between these arms
TTITLE20=When she touches me (nothing else matters)
TTITLE21=My adorable one
TTITLE22=Love me all the way
TTITLE23=That's how strong my love is
TTITLE24=You really got a hold on me
TTITLE25=Put a little lovin' on me
EXTD=
EXTT0=
EXTT1=
EXTT2=
EXTT3=
EXTT4=
EXTT5=
EXTT6=
EXTT7=
EXTT8=
EXTT9=
EXTT10=
EXTT11=
EXTT12=
EXTT13=
EXTT14=
EXTT15=
EXTT16=
EXTT17=
EXTT18=
EXTT19=
EXTT20=
EXTT21=
EXTT22=
EXTT23=
EXTT24=
EXTT25=
PLAYORDER=
